<?xml version="1.0" standalone="no"?>
<!DOCTYPE svg PUBLIC "-//W3C//DTD SVG 20010904//EN"
 "http://www.w3.org/TR/2001/REC-SVG-20010904/DTD/svg10.dtd">
<svg version="1.0" xmlns="http://www.w3.org/2000/svg"
 width="400.000000pt" height="400.000000pt" viewBox="0 0 400.000000 400.000000"
 preserveAspectRatio="xMidYMid meet">
<metadata>
Created by potrace 1.11, written by Peter Selinger 2001-2013
</metadata>
<g transform="translate(0.000000,400.000000) scale(0.100000,-0.100000)"
fill="#000000" stroke="none">
<path d="M1853 3423 c-17 -6 -16 -23 3 -44 15 -17 14 -18 -18 -23 -18 -3 -64
-8 -103 -11 -38 -3 -111 -14 -162 -25 -479 -100 -769 -390 -849 -851 -12 -69
-14 -142 -12 -307 2 -119 8 -226 13 -237 7 -17 3 -15 -26 8 -112 90 -188 109
-239 59 -49 -49 -64 -178 -34 -302 19 -83 82 -213 129 -268 71 -82 178 -123
270 -102 26 6 49 9 51 7 2 -2 20 -57 40 -122 20 -66 44 -135 54 -154 l17 -34
-71 -58 c-101 -82 -295 -283 -346 -359 -76 -112 -183 -404 -196 -533 l-7 -67
1627 0 1626 0 0 39 c0 228 -274 770 -497 982 l-59 56 38 89 c21 49 47 119 59
157 11 37 22 67 23 67 2 0 17 -5 34 -11 75 -26 173 43 245 171 53 97 97 215
97 263 0 60 -36 128 -80 149 -44 22 -132 23 -190 3 -24 -8 -45 -13 -48 -10 -3
2 5 40 18 82 50 167 33 377 -50 638 -60 186 -112 282 -214 391 -46 50 -108
107 -138 127 -101 70 -412 156 -584 161 -72 3 -86 6 -127 34 -49 35 -81 40
-94 18 -7 -13 -20 -12 -93 4 -92 21 -89 21 -107 13z m177 -79 c48 -14 55 -14
65 -1 10 13 17 12 55 -14 44 -30 69 -36 86 -20 16 14 187 -17 351 -64 85 -25
166 -45 178 -45 28 0 104 -58 167 -129 185 -205 321 -559 317 -826 -1 -85 -16
-148 -18 -74 -3 153 -74 406 -169 602 -59 123 -74 146 -131 199 -120 113 -223
166 -494 254 l-142 46 -145 -6 c-200 -8 -545 -62 -719 -112 -109 -31 -370
-217 -483 -345 -103 -114 -149 -224 -169 -403 -10 -91 -9 -122 11 -275 18
-141 19 -178 10 -202 -7 -16 -16 -29 -20 -29 -4 0 -14 62 -22 138 -33 287 8
538 125 766 96 189 298 353 530 432 63 22 320 65 467 79 71 7 96 17 86 34 -9
15 0 14 64 -5z m437 -652 c-41 -42 -40 -52 7 -52 51 0 97 16 229 78 8 4 -26
-63 -69 -135 -10 -17 -15 -35 -11 -39 14 -14 115 14 196 54 l79 38 4 -83 c3
-62 9 -88 23 -103 27 -29 40 -25 78 25 l34 45 17 -43 c23 -62 20 -132 -9 -195
-14 -30 -25 -55 -25 -57 0 -2 13 -3 29 -3 24 1 32 9 50 46 12 24 23 43 25 41
2 -2 0 -30 -4 -63 -5 -32 -9 -88 -10 -125 -1 -36 -3 -86 -4 -111 -1 -45 -1
-45 36 -48 53 -4 63 -22 38 -65 -29 -49 -9 -57 41 -18 59 48 117 71 181 71 50
0 59 -3 82 -30 40 -48 43 -89 11 -178 -60 -170 -126 -270 -200 -303 -54 -25
-74 -24 -107 8 -15 14 -29 25 -31 22 -2 -2 -14 -42 -26 -89 -51 -192 -197
-497 -252 -525 -65 -34 -290 -118 -378 -141 -239 -62 -556 -70 -796 -20 -194
41 -461 134 -572 199 -44 26 -105 119 -138 214 -57 159 -107 283 -115 283 -4
0 -14 -7 -21 -16 -11 -13 -26 -15 -75 -11 -187 15 -318 204 -326 471 -4 107
12 136 75 136 86 0 210 -86 223 -155 3 -20 10 -37 14 -40 4 -2 24 33 44 79 21
46 47 94 57 105 17 18 19 30 13 79 -7 63 10 166 29 182 7 6 38 31 71 56 33 27
91 91 133 148 71 96 109 135 83 86 -19 -36 0 -45 64 -32 77 16 161 60 234 126
55 49 139 103 147 94 1 -2 -6 -28 -16 -58 -11 -34 -14 -59 -9 -64 6 -6 48 11
110 43 l100 52 -6 -30 c-5 -24 -3 -31 9 -31 8 0 17 -9 20 -21 4 -16 -3 -24
-39 -42 -55 -26 -58 -47 -6 -47 47 0 92 23 174 87 105 83 147 99 78 28 -35
-36 -40 -45 -27 -51 24 -9 79 29 136 93 46 51 51 54 66 39 25 -24 117 -20 190
9 81 32 85 31 42 -13z m-747 -2044 c88 -18 140 -22 325 -22 142 -1 244 4 289
12 37 7 70 11 73 8 2 -2 -14 -33 -37 -69 -71 -113 -179 -166 -341 -167 -183 0
-325 77 -424 233 -21 34 -22 34 115 5z"/>
<path d="M2715 2197 c-155 -82 -369 -231 -462 -323 -33 -32 -64 -54 -77 -54
-46 0 -60 -22 -58 -91 3 -86 13 -168 21 -167 45 5 51 -1 51 -61 0 -72 19 -129
65 -191 34 -46 90 -84 108 -73 5 3 -9 24 -31 47 -41 43 -92 114 -92 129 0 5
20 -16 44 -45 49 -61 85 -88 116 -88 24 0 26 15 3 28 -10 6 8 8 53 5 139 -10
250 36 307 129 16 26 32 68 34 93 5 44 7 45 40 45 34 0 34 -1 28 -32 -4 -18
-16 -47 -26 -64 -10 -17 -19 -39 -19 -48 0 -57 73 46 76 107 l2 42 61 5 c60 5
108 30 96 50 -3 5 -27 16 -53 24 l-47 14 40 17 c22 10 50 21 63 26 61 24 -23
72 -160 91 -48 7 -87 18 -94 26 -8 11 -44 13 -192 11 -99 -2 -178 -1 -174 2 4
3 60 40 125 82 64 42 117 81 117 87 0 20 -37 8 -147 -49 -62 -32 -113 -57
-113 -55 0 8 153 113 247 168 62 37 125 78 140 91 l28 25 -30 -11 c-26 -9 -99
-47 -185 -97 -24 -13 -24 -13 -5 3 11 9 64 42 117 73 54 31 98 60 98 65 0 16
-39 4 -115 -36z m55 -634 c0 -78 -77 -177 -156 -201 -52 -15 -175 -16 -225 -1
-75 23 -148 110 -149 177 0 19 5 22 40 22 38 0 40 -2 40 -29 0 -73 39 -109
105 -97 26 5 41 16 55 39 26 42 25 47 -7 47 -16 0 -35 5 -43 10 -30 19 8 31
126 39 202 14 214 13 214 -6z"/>
<path d="M1450 2144 c0 -3 10 -19 21 -36 l22 -30 -41 26 c-69 44 -70 29 -1
-41 115 -121 122 -131 44 -76 -81 59 -211 143 -219 143 -22 0 11 -31 134 -125
77 -60 140 -109 140 -111 0 -2 -12 1 -27 7 -14 5 -32 8 -40 5 -29 -11 -10 -33
57 -65 39 -18 70 -37 70 -42 0 -5 -60 -9 -133 -9 -147 0 -430 -24 -472 -40
-36 -14 -27 -32 23 -50 23 -8 42 -17 42 -21 0 -4 -16 -10 -35 -13 -37 -7 -42
-15 -23 -34 9 -9 3 -15 -25 -27 -47 -19 -50 -26 -32 -69 16 -38 25 -40 93 -15
33 12 32 13 32 -26 0 -65 71 -165 117 -165 13 0 23 3 23 6 0 4 -20 28 -44 54
-48 51 -76 124 -57 143 8 8 11 3 11 -16 0 -104 126 -216 245 -217 l50 -1 -27
-23 c-26 -23 -27 -36 -3 -36 6 0 37 15 68 34 31 19 57 32 57 29 0 -3 -19 -29
-43 -57 -78 -94 -78 -93 -27 -65 104 56 252 234 287 345 l17 54 54 0 55 0 -5
83 c-5 81 -19 127 -38 127 -10 0 -117 107 -151 150 -32 41 -202 210 -211 210
-4 0 -8 -3 -8 -6z m250 -581 c0 -30 -58 -120 -93 -147 -71 -55 -210 -87 -286
-66 -69 18 -129 86 -155 176 -7 24 8 28 188 40 l99 7 -6 -24 c-11 -45 6 -92
42 -116 19 -13 42 -23 53 -23 26 0 86 59 94 93 6 25 4 27 -24 27 -54 0 -48 32
8 43 57 10 80 7 80 -10z"/>
<path d="M3384 1869 c-84 -32 -189 -148 -160 -177 4 -3 30 20 58 52 48 54 53
57 65 40 7 -10 13 -26 13 -36 0 -10 7 -18 15 -18 21 0 21 78 0 86 -23 9 -7 24
26 24 22 0 32 -6 39 -26 13 -33 30 -22 30 21 0 49 -23 58 -86 34z"/>
<path d="M560 1840 c-21 -21 -24 -39 -14 -77 10 -37 34 -28 34 12 0 29 4 36
25 41 30 7 62 -13 45 -30 -5 -5 -10 -32 -10 -59 0 -41 3 -48 18 -45 11 2 19
16 22 38 l6 35 17 -32 c10 -18 21 -33 26 -33 16 0 21 32 11 69 -22 83 -130
131 -180 81z"/>
<path d="M2756 1334 c-52 -66 -149 -89 -274 -65 -59 12 -62 -4 -5 -23 60 -20
156 -20 216 0 53 18 101 70 95 104 -3 18 -6 16 -32 -16z"/>
<path d="M2829 1323 c-38 -42 -41 -48 -24 -52 21 -4 85 58 85 84 0 25 -16 17
-61 -32z"/>
<path d="M1130 1317 c0 -18 35 -54 70 -72 34 -18 123 -25 128 -11 2 5 -21 18
-50 29 -29 11 -70 31 -90 44 -43 26 -58 29 -58 10z"/>
<path d="M2109 934 c-60 -64 -121 -71 -177 -19 -22 19 -42 32 -46 28 -26 -26
38 -97 98 -108 64 -12 166 55 166 109 0 23 -13 20 -41 -10z"/>
</g>
</svg>
